<?xml version="1.0" encoding="UTF-8"?>
<svg version="1.1" xmlns="http://www.w3.org/2000/svg" width="1426" height="564">
<path d="M0 0 C1.56087403 0.84860036 3.14349914 1.65688174 4.72802734 2.46044922 C38.46722669 19.83541493 63.91067654 53.02576403 75.70483398 88.64208984 C87.7895926 127.39490227 84.45351196 169.60842443 65.64038086 205.68920898 C59.70816413 216.63599139 52.55311046 226.30814732 44.71630859 235.93310547 C44.06142456 236.74352295 44.06142456 236.74352295 43.39331055 237.5703125 C39.85272494 241.89940696 35.97261045 245.33984561 31.71630859 248.93310547 C30.87455078 249.68591797 30.03279297 250.43873047 29.16552734 251.21435547 C-1.85381073 278.3294615 -41.74695919 288.85725889 -82.28369141 286.93310547 C-117.96302079 284.22373424 -149.05853278 268.84736894 -175.28369141 244.93310547 C-176.03134766 244.25763672 -176.77900391 243.58216797 -177.54931641 242.88623047 C-192.66208297 228.51067203 -203.64730341 210.17762214 -211.28369141 190.93310547 C-211.67169922 189.96888672 -212.05970703 189.00466797 -212.45947266 188.01123047 C-226.57281384 151.17486507 -224.21194986 109.76708977 -209.03369141 73.67919922 C-201.3126726 56.73939323 -191.0660442 42.4414783 -178.28369141 28.93310547 C-177.50380859 28.10037109 -176.72392578 27.26763672 -175.92041016 26.40966797 C-160.0464715 9.95343172 -139.66549217 -1.40361694 -118.28369141 -9.06689453 C-116.80835938 -9.61023438 -116.80835938 -9.61023438 -115.30322266 -10.16455078 C-105.9373532 -13.35112732 -96.35313284 -14.59031011 -86.57275391 -15.78515625 C-84.76567546 -16.00757183 -82.96151018 -16.25365263 -81.15869141 -16.50830078 C-53.99296203 -19.8615705 -23.78170815 -13.02558674 0 0 Z M-121.28369141 18.93310547 C-121.99477051 19.24940918 -122.70584961 19.56571289 -123.43847656 19.89160156 C-132.97636989 24.21899948 -141.1420798 29.30012327 -149.28369141 35.93310547 C-150.21826172 36.63951172 -151.15283203 37.34591797 -152.11572266 38.07373047 C-152.83115234 38.68732422 -153.54658203 39.30091797 -154.28369141 39.93310547 C-154.28369141 40.59310547 -154.28369141 41.25310547 -154.28369141 41.93310547 C-154.82509766 42.14193359 -155.36650391 42.35076172 -155.92431641 42.56591797 C-159.18229063 44.45381694 -161.52158945 47.05229213 -164.03369141 49.80810547 C-164.5630127 50.3860083 -165.09233398 50.96391113 -165.63769531 51.55932617 C-170.48611122 56.96536147 -174.47598599 62.75310503 -178.28369141 68.93310547 C-178.80318359 69.70525391 -179.32267578 70.47740234 -179.85791016 71.27294922 C-191.59017063 89.28704994 -196.46347156 111.76015653 -196.52392578 132.93676758 C-196.53355371 134.9665755 -196.56460664 136.99533437 -196.59619141 139.02490234 C-196.66874599 148.014696 -195.52428722 156.23110809 -193.28369141 164.93310547 C-193.11047363 165.65248291 -192.93725586 166.37186035 -192.75878906 167.11303711 C-188.00906969 186.43124601 -178.65779525 202.6146811 -166.28369141 217.93310547 C-165.83928711 218.49932617 -165.39488281 219.06554687 -164.93701172 219.64892578 C-163.76490673 221.11470104 -162.52873799 222.52875999 -161.28369141 223.93310547 C-160.62369141 223.93310547 -159.96369141 223.93310547 -159.28369141 223.93310547 C-159.08904297 224.47708984 -158.89439453 225.02107422 -158.69384766 225.58154297 C-156.66488727 228.96501708 -153.7770515 231.14531816 -150.72119141 233.55810547 C-150.05933838 234.08227051 -149.39748535 234.60643555 -148.71557617 235.14648438 C-125.68716875 252.95425787 -99.38167315 262.15790402 -70.34619141 262.18310547 C-69.65050049 262.18378021 -68.95480957 262.18445496 -68.23803711 262.18515015 C-52.27560427 262.16052245 -38.25075167 259.47707773 -23.28369141 253.93310547 C-22.27951172 253.57603516 -21.27533203 253.21896484 -20.24072266 252.85107422 C-8.43667827 248.34291691 3.01950638 241.01377398 12.71630859 232.93310547 C12.71630859 232.27310547 12.71630859 231.61310547 12.71630859 230.93310547 C13.27318359 230.69720703 13.83005859 230.46130859 14.40380859 230.21826172 C33.45679534 219.62969307 47.13741028 191.50164428 53.06689453 171.35693359 C62.38871659 136.56480976 57.84542352 101.85611444 40.43505859 70.46435547 C36.52715989 63.73913445 31.76008209 57.82923758 26.71630859 51.93310547 C26.10142578 51.16740234 25.48654297 50.40169922 24.85302734 49.61279297 C20.15981044 43.90028552 14.54238047 39.44592344 8.71630859 34.93310547 C7.89646484 34.27439453 7.07662109 33.61568359 6.23193359 32.93701172 C-15.86369774 15.88494841 -41.35839893 8.4753987 -68.97119141 8.62060547 C-69.72480957 8.62309296 -70.47842773 8.62558044 -71.25488281 8.62814331 C-89.43004894 8.72105598 -104.62190826 11.51840837 -121.28369141 18.93310547 Z " fill="#FFFFFF" transform="translate(650.28369140625,103.06689453125)"/>
<path d="M0 0 C0.83644043 0.07847168 1.67288086 0.15694336 2.53466797 0.23779297 C20.18380645 2.00037448 37.19715641 6.84203854 53 15 C54.37671875 15.70769531 54.37671875 15.70769531 55.78125 16.4296875 C89.88951935 34.51456658 117.56503857 65.37177395 129.6171875 102.31640625 C134.89661042 119.55480484 137.1573841 136.18933834 137.11352539 154.16821289 C137.11324294 155.79513548 137.11340239 157.4220582 137.1139679 159.04898071 C137.1142536 163.44294702 137.10839361 167.83688576 137.10139394 172.23084569 C137.09512257 176.83125876 137.09455361 181.43167254 137.09336853 186.03208923 C137.09026635 194.73349873 137.082068 203.4348956 137.07201904 212.13629955 C137.06082329 222.04683792 137.05533874 231.95737691 137.05032361 241.86792004 C137.03988442 262.24528726 137.02210403 282.62264239 137 303 C128.75 303 120.5 303 112 303 C111.99120064 299.90834976 111.99120064 299.90834976 111.98222351 296.75424194 C111.92545635 277.30377987 111.85232561 257.85342791 111.76428509 238.40308189 C111.71941569 228.40414869 111.6799808 218.40525039 111.65356445 208.40625 C111.63051243 199.68601424 111.59703457 190.96588979 111.55129844 182.24574244 C111.52746297 177.63312509 111.50867104 173.02061733 111.50238609 168.40793991 C111.49629114 164.05601475 111.47613434 159.70436961 111.44572449 155.3525486 C111.43701433 153.76524242 111.4332069 152.17789953 111.43499184 150.59057045 C111.44262104 140.66513337 110.44232812 131.65553157 108 122 C107.59587891 120.06447266 107.59587891 120.06447266 107.18359375 118.08984375 C103.5108074 102.57184068 96.24244686 87.24234068 86 75 C85.07779833 73.86615103 84.15594576 72.73201807 83.234375 71.59765625 C82.26259971 70.4174699 81.28866034 69.23906195 80.3125 68.0625 C79.86076416 67.51787109 79.40902832 66.97324219 78.94360352 66.41210938 C76.20264247 63.18875126 73.32806773 60.59432051 70 58 C69.20207031 57.19175781 68.40414062 56.38351563 67.58203125 55.55078125 C55.58984102 43.703731 40.00228342 36.4809172 24.25 31.125 C22.99207642 30.69537964 22.99207642 30.69537964 21.70874023 30.25708008 C10.39381432 26.59127781 -0.72913383 25.6487922 -12.55273438 25.68432617 C-14.73358722 25.68747629 -16.91306443 25.66396586 -19.09375 25.63867188 C-32.00535204 25.57948355 -44.60103399 27.22361581 -56.75 31.8125 C-57.45334473 32.07039307 -58.15668945 32.32828613 -58.88134766 32.59399414 C-74.33484317 38.39742105 -89.45445746 47.0493507 -101 59 C-101.99 59.99 -101.99 59.99 -103 61 C-103.66 61 -104.32 61 -105 61 C-105.24621094 61.56976563 -105.49242187 62.13953125 -105.74609375 62.7265625 C-107.20685319 65.37504223 -108.95944549 67.20147276 -111.0625 69.375 C-138.2970435 99.18873783 -141.61641643 136.77427618 -141.60750484 175.1451087 C-141.61067593 179.65475518 -141.63637935 184.16427819 -141.65948486 188.67385864 C-141.69973202 197.17649827 -141.72031112 205.67906184 -141.73345876 214.18178189 C-141.74943606 223.87745923 -141.78789553 233.57300904 -141.82805204 243.26861167 C-141.91002181 263.17903514 -141.96358335 283.08944551 -142 303 C-150.25 303 -158.5 303 -167 303 C-167.11654384 282.39600064 -167.20537691 261.79209666 -167.25906086 241.18783379 C-167.28466756 231.61745749 -167.31947524 222.04729175 -167.37719727 212.47705078 C-167.42757714 204.12003004 -167.45941774 195.763162 -167.47044247 187.40599358 C-167.47687061 182.99501666 -167.49159449 178.58447596 -167.52865028 174.1736412 C-167.80554752 139.8472857 -164.55047367 108.65025188 -148 78 C-147.43410156 76.94039063 -146.86820313 75.88078125 -146.28515625 74.7890625 C-127.54805052 41.19453411 -95.17402274 16.22320765 -58.5859375 4.953125 C-39.40132219 -0.1460538 -19.74292683 -1.95181721 0 0 Z " fill="#FFFFFF" transform="translate(215,87)"/>
<path d="M0 0 C3.00206003 2.6162853 4.62080993 5.66730816 6.51171875 9.14453125 C6.84363724 9.75076828 7.17555573 10.35700531 7.51753235 10.98161316 C8.57910606 12.92260568 9.63359649 14.8673339 10.6875 16.8125 C12.06429568 19.34099774 13.44390898 21.86795043 14.82421875 24.39453125 C15.16822723 25.02505905 15.51223572 25.65558685 15.8666687 26.30522156 C19.48644659 32.92280476 23.24121864 39.46073673 27 46 C29.00636936 49.5172361 31.00502187 53.0387917 33 56.5625 C33.81078003 57.99456787 33.81078003 57.99456787 34.63793945 59.45556641 C39.56922373 68.19050578 44.4008201 76.97888742 49.22869873 85.7711792 C53.09355072 92.80471271 56.99690503 99.80387565 61.125 106.6875 C65.94807742 114.73005318 70.33292189 122.99746953 74.74951172 131.26831055 C78.73129484 138.70339346 82.84716518 146.0387914 87.10620117 153.31787109 C91.35407649 160.57968913 95.43715199 167.92659516 99.50292969 175.29150391 C102.28364971 180.32237603 105.07555066 185.34704697 107.86682129 190.37207031 C108.85279246 192.14751083 109.83806881 193.92333545 110.82324219 195.69921875 C114.22968651 201.83476077 117.66517716 207.94891177 121.16943359 214.02905273 C127.9678559 225.83255164 134.61438303 237.71075568 141.16845703 249.65097046 C145.09830126 256.80545327 149.06285743 263.92922687 153.25 270.9375 C157.18478823 277.52658874 160.93358672 284.20906035 164.625 290.9375 C165.42599121 292.38854126 165.42599121 292.38854126 166.24316406 293.86889648 C166.73268555 294.76680908 167.22220703 295.66472168 167.7265625 296.58984375 C168.16564941 297.39284912 168.60473633 298.19585449 169.05712891 299.02319336 C170 301 170 301 170 303 C160.1 303 150.2 303 140 303 C133.60436715 291.90396229 127.3043369 280.78559008 121.25 269.5 C117.33519838 262.20848014 113.36282317 255.03417333 108.87890625 248.07421875 C106.07168346 243.48111202 103.55111182 238.7389897 101 234 C100.47092041 233.01845947 99.94184082 232.03691895 99.39672852 231.02563477 C98.86362061 230.03619873 98.3305127 229.0467627 97.78125 228.02734375 C97.24113281 227.02509766 96.70101563 226.02285156 96.14453125 224.99023438 C95.04654573 222.95204985 93.95019571 220.91298345 92.85546875 218.87304688 C89.86214853 213.32576011 86.75624412 207.88238762 83.48266602 202.49633789 C81.3858858 198.96602705 79.44285267 195.35835577 77.49169922 191.74609375 C75.07490845 187.29698366 72.56429838 182.90168401 70.0625 178.5 C65.13964924 169.81784231 60.2729673 161.10610066 55.4375 152.375 C50.50625277 143.47109727 45.50442071 134.61359459 40.42431641 125.79394531 C36.6050741 119.13178904 32.94618392 112.38982588 29.3125 105.625 C25.51929452 98.56810587 21.6614051 91.59111597 17.47216797 84.76196289 C11.71288313 75.33394741 6.40314006 65.63474173 1 56 C-1.71093984 58.59977759 -3.44017313 61.22880823 -5.3125 64.5 C-5.86550781 65.4590625 -6.41851563 66.418125 -6.98828125 67.40625 C-9.13429942 71.21030143 -11.214898 75.0499091 -13.30249023 78.88623047 C-16.13563805 84.08311919 -18.99156361 89.26743555 -21.84912109 94.45092773 C-22.52993588 95.68634248 -23.21027889 96.92201735 -23.89013672 98.15795898 C-28.2282334 106.04417092 -32.62807016 113.89086385 -37.10693359 121.69799805 C-39.88177315 126.53804253 -42.62998109 131.39299802 -45.375 136.25 C-45.93243896 137.23597168 -46.48987793 138.22194336 -47.06420898 139.23779297 C-50.83343273 145.9128535 -54.56426387 152.60814479 -58.27441406 159.31616211 C-61.33989347 164.84492943 -64.47456183 170.33179418 -67.625 175.8125 C-72.92256321 185.03086839 -78.05578544 194.3359312 -83.17111206 203.65600586 C-87.07744686 210.76848229 -91.01862922 217.84934032 -95.1875 224.8125 C-99.71032101 232.36701852 -103.87551878 240.09990444 -108.04370117 247.85449219 C-113.01235411 257.0773132 -118.19473553 266.16633977 -123.42041016 275.24511719 C-126.36471617 280.3801325 -129.27550294 285.53411601 -132.1875 290.6875 C-132.75275391 291.686604 -133.31800781 292.68570801 -133.90039062 293.71508789 C-134.42181641 294.63797607 -134.94324219 295.56086426 -135.48046875 296.51171875 C-135.94348389 297.33115967 -136.40649902 298.15060059 -136.88354492 298.99487305 C-137.61811165 300.31413755 -138.3247153 301.64943061 -139 303 C-149.23 303 -159.46 303 -170 303 C-163.09181403 289.888545 -155.89205875 276.94436337 -148.67236328 264.00268555 C-147.21679781 261.38925493 -145.76970808 258.77135172 -144.32421875 256.15234375 C-142.49628864 252.8600456 -140.60166158 249.61530266 -138.66625977 246.38525391 C-134.08900519 238.74084591 -129.77814577 230.97413686 -125.5625 223.125 C-121.27959269 215.15233752 -116.89164972 207.26515336 -112.31811523 199.45605469 C-105.19355168 187.25135635 -98.41879544 174.84073701 -91.60253906 162.4621582 C-89.35654795 158.39400507 -87.05436167 154.37091936 -84.66601562 150.38476562 C-79.46068482 141.69177599 -74.62486039 132.82208421 -69.83374023 123.89550781 C-66.17499693 117.10309607 -62.39829445 110.40249386 -58.421875 103.79101562 C-55.6711821 99.20814742 -53.09785135 94.54404396 -50.55102539 89.8449707 C-48.06458029 85.28420496 -45.50012674 80.7682633 -42.9375 76.25 C-42.37587158 75.25758301 -41.81424316 74.26516602 -41.2355957 73.24267578 C-38.4368984 68.29764725 -35.63401138 63.35501473 -32.828125 58.4140625 C-26.00794373 46.39138194 -19.28564356 34.31843972 -12.64331055 22.19677734 C-8.5409855 14.72783909 -4.33245213 7.33770351 0 0 Z " fill="#FFFFFF" transform="translate(1213,87)"/>
<path d="M0 0 C2.56257711 -0.02762059 5.1248412 -0.04712844 7.6875 -0.0625 C8.7403418 -0.07506836 8.7403418 -0.07506836 9.81445312 -0.08789062 C11.3299878 -0.09462633 12.84576143 -0.07685286 14.36083984 -0.0390625 C16.31972728 -0.01006879 18.28022615 -0.06489003 20.23681641 -0.1640625 C28.71754347 -0.23211247 28.71754347 -0.23211247 32.1394043 3.05541992 C34.0273083 5.99496267 35.52855839 8.95645844 37 12.125 C38.17572977 14.43037831 39.35284303 16.7350515 40.53125 19.0390625 C41.10875 20.20856445 41.68625 21.37806641 42.28125 22.58300781 C44.83650113 27.66302129 47.66282184 32.57376821 50.5 37.5 C51.57471854 39.39481246 52.64762145 41.29065582 53.71875 43.1875 C54.255 44.13625 54.79125 45.085 55.34375 46.0625 C58.83479594 52.25416639 62.30002554 58.46031057 65.76953125 64.6640625 C69.66158037 71.61969795 73.57333772 78.56385204 77.5 85.5 C82.61895895 94.54224866 87.70326312 103.60344172 92.77392578 112.67285156 C96.61830911 119.54488617 100.48980711 126.40097539 104.375 133.25 C109.74202537 142.71284781 114.99296262 152.23676205 120.2293396 161.77218628 C124.47969237 169.50638948 128.81197832 177.17620347 133.34667969 184.74804688 C137.48197282 191.70584167 141.27328253 198.84635771 145.10302734 205.9753418 C149.80879862 214.70996977 154.73614244 223.29908365 159.75097656 231.85888672 C161.75199616 235.28909427 163.72093221 238.73745897 165.6875 242.1875 C166.65236328 243.87939453 166.65236328 243.87939453 167.63671875 245.60546875 C168.31154297 246.79076172 168.31154297 246.79076172 169 248 C171.58765577 245.66712442 173.07732775 243.28143349 174.6953125 240.20703125 C175.21770508 239.22686035 175.74009766 238.24668945 176.27832031 237.23681641 C176.84647461 236.16866699 177.41462891 235.10051758 178 234 C179.26443063 231.68920142 180.53197446 229.38043468 181.8046875 227.07421875 C182.47789099 225.85222809 183.15106775 224.6302227 183.82421875 223.40820312 C184.16243652 222.79468994 184.5006543 222.18117676 184.84912109 221.54907227 C185.52993588 220.31365752 186.21027889 219.07798265 186.89013672 217.84204102 C191.2282334 209.95582908 195.62807016 202.10913615 200.10693359 194.30200195 C202.88177315 189.46195747 205.62998109 184.60700198 208.375 179.75 C208.93243896 178.76402832 209.48987793 177.77805664 210.06420898 176.76220703 C213.83343273 170.0871465 217.56426387 163.39185521 221.27441406 156.68383789 C224.33989347 151.15507057 227.47456183 145.66820582 230.625 140.1875 C235.92256321 130.96913161 241.05578544 121.6640688 246.17111206 112.34399414 C250.44239973 104.56702814 254.79370251 96.8540186 259.35302734 89.24145508 C262.82550736 83.39888111 266.039364 77.42709387 269.25 71.4375 C274.21524385 62.17652458 279.41140247 53.08190225 284.75097656 44.0324707 C289.55329238 35.85633362 294.10514072 27.5600983 298.5625 19.19140625 C307.4505597 2.5494403 307.4505597 2.5494403 310 0 C312.14558827 -0.08775605 314.29404421 -0.10695219 316.44140625 -0.09765625 C317.74658203 -0.09443359 319.05175781 -0.09121094 320.39648438 -0.08789062 C321.7851569 -0.07953401 323.17382877 -0.07106905 324.5625 -0.0625 C325.95507656 -0.05748666 327.34765481 -0.05292347 328.74023438 -0.04882812 C332.1601987 -0.03699434 335.58007844 -0.0205088 339 0 C338.42264204 3.66198368 337.44202252 6.3694922 335.5859375 9.5703125 C335.07957764 10.45340088 334.57321777 11.33648926 334.05151367 12.24633789 C333.49826416 13.19629639 332.94501465 14.14625488 332.375 15.125 C331.19031109 17.18817362 330.00676521 19.2520039 328.82421875 21.31640625 C327.88908447 22.94473389 327.88908447 22.94473389 326.93505859 24.60595703 C323.9648161 29.81568592 321.06049862 35.06137659 318.15771484 40.30889893 C313.51267413 48.70451196 308.84516094 57.08422441 304.0625 65.40234375 C296.00965235 79.41739591 288.1329294 93.53452334 280.24291992 107.64160156 C275.1716384 116.704568 270.06393399 125.74665211 264.94921875 134.78515625 C262.10244786 139.81629906 259.26668753 144.8535441 256.43652344 149.89404297 C254.33990556 153.62564672 252.23433861 157.35200251 250.12109375 161.07421875 C245.31238214 169.55007019 240.52015257 178.03353208 235.8203125 186.5703125 C235.46616776 187.21351944 235.11202301 187.85672638 234.74714661 188.51942444 C233.01347071 191.67018162 231.28298343 194.8226478 229.55639648 197.97729492 C226.29830382 203.91819795 222.95643767 209.785723 219.43920898 215.57714844 C217.39493207 219.018608 215.49596937 222.53274037 213.59375 226.05419922 C210.60421026 231.5799018 207.54713754 237.06841868 204.5 242.5625 C203.86191406 243.71685547 203.22382812 244.87121094 202.56640625 246.06054688 C199.7505206 251.13662704 196.91673887 256.18876103 193.90625 261.15234375 C191.33491051 265.39218162 188.94494586 269.71024294 186.58886719 274.07275391 C183.6565156 279.47516563 180.63332975 284.82714626 177.625 290.1875 C176.98433594 291.33025391 176.34367188 292.47300781 175.68359375 293.65039062 C174.12295924 296.43391038 172.56175232 299.21710732 171 302 C170.01 302 169.02 302 168 302 C159.46808665 286.93724799 150.98639287 271.84706926 142.53369141 256.73974609 C138.0132216 248.66449741 133.47297032 240.60048359 128.9140625 232.546875 C123.91428158 223.71351151 118.91654291 214.88003289 114 206 C109.74445693 198.31404764 105.42663457 190.66432275 101.09765625 183.01953125 C97.04441174 175.85785447 93.01644645 168.68237095 89 161.5 C81.79745604 148.62302611 74.5395704 135.77773187 67.26660156 122.94042969 C66.09740846 120.8766513 64.92854261 118.81268747 63.76000977 116.74853516 C62.67010986 114.82330136 61.57951251 112.89846213 60.48803711 110.97412109 C57.95497575 106.49892359 55.45177828 102.01035991 52.99609375 97.4921875 C50.05715654 92.08526904 47.03845288 86.72647513 44 81.375 C39.30971498 73.0964298 34.64353394 64.80488147 30 56.5 C25.43810693 48.34191165 20.85481939 40.19643116 16.25 32.0625 C14.67424549 29.2731729 13.09902138 26.48354688 11.52392578 23.69384766 C10.50646931 21.89528715 9.48660363 20.09808747 8.46435547 18.30224609 C7.0331418 15.7879518 5.6095907 13.26946214 4.1875 10.75 C3.54699707 9.63250366 3.54699707 9.63250366 2.89355469 8.49243164 C0 3.34124833 0 3.34124833 0 0 Z " fill="#FFFFFF" transform="translate(759,86)"/>
<path d="M0 0 C2.31 0 4.62 0 7 0 C7.99 6.93 8.98 13.86 10 21 C10.33 21 10.66 21 11 21 C12.32 14.4 13.64 7.8 15 1 C16.65 0.67 18.3 0.34 20 0 C22.54322809 6.93607661 23.94915607 13.69354394 25 21 C25.33 21 25.66 21 26 21 C26.99 14.07 27.98 7.14 29 0 C31.31 0 33.62 0 36 0 C35.45221405 10.76188713 33.76990904 21.20987502 31.9375 31.8125 C31.65245943 33.48753919 31.36795069 35.16266898 31.08398438 36.83789062 C30.39543583 40.89299522 29.69975026 44.94681402 29 49 C26.625 49.625 26.625 49.625 24 50 C21.74288438 47.74288438 21.64188026 47.02326363 21.18359375 43.97265625 C21.05919922 43.18052734 20.93480469 42.38839844 20.80664062 41.57226562 C20.68482422 40.74404297 20.56300781 39.91582031 20.4375 39.0625 C20.18830893 37.42806217 19.93708783 35.79393223 19.68359375 34.16015625 C19.57587646 33.43449463 19.46815918 32.70883301 19.35717773 31.96118164 C19.01062933 29.79667372 19.01062933 29.79667372 18 27 C17.88930176 27.62567871 17.77860352 28.25135742 17.66455078 28.89599609 C17.15951919 31.72385769 16.64241875 34.54937986 16.125 37.375 C15.86396484 38.85226562 15.86396484 38.85226562 15.59765625 40.359375 C15.42363281 41.30039062 15.24960937 42.24140625 15.0703125 43.2109375 C14.91320801 44.08024902 14.75610352 44.94956055 14.59423828 45.84521484 C14 48 14 48 12 50 C9.375 49.625 9.375 49.625 7 49 C5.99694513 42.98700615 5.00022141 36.97300942 4.00927734 30.95800781 C3.67148634 28.91312539 3.33198562 26.86852461 2.99072266 24.82421875 C2.49969867 21.88093793 2.01488954 18.93668959 1.53125 15.9921875 C1.37813354 15.0825827 1.22501709 14.17297791 1.06726074 13.23580933 C0.34007742 8.77117757 -0.18300769 4.54251234 0 0 Z " fill="#FFFFFF" transform="translate(893,457)"/>
<path d="M0 0 C1.65 0 3.3 0 5 0 C7.86309872 5.57417449 10.40406746 11.19146185 12.75 17 C14.35875 20.96 14.35875 20.96 16 25 C16.33 16.75 16.66 8.5 17 0 C19.31 0 21.62 0 24 0 C24 16.17 24 32.34 24 49 C19 50 19 50 17 49 C15.94677734 46.77514648 15.94677734 46.77514648 14.8359375 43.87109375 C14.23652344 42.31938477 14.23652344 42.31938477 13.625 40.73632812 C13.2125 39.64771484 12.8 38.55910156 12.375 37.4375 C11.95476562 36.34501953 11.53453125 35.25253906 11.1015625 34.12695312 C10.06144979 31.42029619 9.0279151 28.71130771 8 26 C7.97494385 26.62044189 7.9498877 27.24088379 7.92407227 27.88012695 C7.80803279 30.69112397 7.68534241 33.50179241 7.5625 36.3125 C7.52318359 37.28896484 7.48386719 38.26542969 7.44335938 39.27148438 C7.40146484 40.20927734 7.35957031 41.14707031 7.31640625 42.11328125 C7.27974854 42.97735596 7.24309082 43.84143066 7.20532227 44.73168945 C7 47 7 47 6 50 C4.02 50 2.04 50 0 50 C0 33.5 0 17 0 0 Z " fill="#FFFFFF" transform="translate(1319,457)"/>
<path d="M0 0 C5.94 0 11.88 0 18 0 C23.70736888 5.70736888 23.76624974 6.43530855 24.25 13.8125 C24.23789053 17.00939958 23.59895756 19.36633667 22.375 22.3125 C21.92125 23.529375 21.4675 24.74625 21 26 C21.66 26.99 22.32 27.98 23 29 C23.22705078 31.26831055 23.22705078 31.26831055 23.1953125 33.88671875 C23.18886719 34.82451172 23.18242188 35.76230469 23.17578125 36.72851562 C23.15902344 37.70498047 23.14226563 38.68144531 23.125 39.6875 C23.11597656 40.67556641 23.10695313 41.66363281 23.09765625 42.68164062 C23.0740843 45.12133765 23.04118022 47.56054697 23 50 C21.00045254 50.04254356 18.99958364 50.04080783 17 50 C15.48937307 48.48937307 15.80467543 47.10608711 15.71875 45 C15.68136719 44.195625 15.64398437 43.39125 15.60546875 42.5625 C15.53515625 40.85416667 15.46484375 39.14583333 15.39453125 37.4375 C15.35714844 36.633125 15.31976562 35.82875 15.28125 35 C15.25095703 34.2575 15.22066406 33.515 15.18945312 32.75 C15.18207587 30.97311145 15.18207587 30.97311145 14 30 C11.69 30 9.38 30 7 30 C6.67 36.6 6.34 43.2 6 50 C4.02 50 2.04 50 0 50 C0 33.5 0 17 0 0 Z M8 6 C5.68100744 7.88503098 5.68100744 7.88503098 5.76953125 11.00390625 C5.78371094 12.17824219 5.79789063 13.35257812 5.8125 14.5625 C5.81894531 15.73941406 5.82539062 16.91632813 5.83203125 18.12890625 C5.67482565 20.89635973 5.67482565 20.89635973 7 22 C12.3090811 22.00925717 12.3090811 22.00925717 16.5 19.375 C17.17850451 16.15210358 17.23880382 13.28355251 17 10 C15.25318007 6.6376178 15.25318007 6.6376178 11.5 6.1875 C10.345 6.125625 9.19 6.06375 8 6 Z " fill="#FFFFFF" transform="translate(975,457)"/>
<path d="M0 0 C3.35892645 2.28180235 4.7242511 5.1727533 6 9 C6.2284328 13.3596054 6.22831132 17.72159262 6.24023438 22.08642578 C6.24990337 24.22859066 6.28092109 26.36978041 6.3125 28.51171875 C6.31903451 29.88801518 6.32428322 31.26431842 6.328125 32.640625 C6.3374707 33.88360352 6.34681641 35.12658203 6.35644531 36.40722656 C5.87450379 41.26493304 4.62980241 45.34309069 1.12109375 48.91015625 C-2.77543289 50.912239 -6.74428542 50.62766617 -11 50 C-14.63238654 47.88110785 -16.50822347 45.88840774 -18 42 C-18.23881622 39.36488014 -18.37524179 36.83673495 -18.40625 34.19921875 C-18.41765015 33.44461868 -18.42905029 32.69001862 -18.4407959 31.91255188 C-18.45965187 30.31814137 -18.47274641 28.72365369 -18.48046875 27.12915039 C-18.4998589 24.70513943 -18.56191217 22.28454165 -18.625 19.86132812 C-18.80653625 6.88404839 -18.80653625 6.88404839 -15.34765625 2.4453125 C-10.78906304 -1.56487344 -5.69175557 -1.29140673 0 0 Z M-10 7 C-12.25215426 11.50430853 -11.18584447 17.69856211 -11.18530273 22.71289062 C-11.18749143 24.99107477 -11.20565804 27.26877643 -11.22460938 29.546875 C-11.22754293 30.98958167 -11.22952798 32.43229065 -11.23046875 33.875 C-11.23457764 35.19242187 -11.23868652 36.50984375 -11.24291992 37.8671875 C-11.3338702 41.09967995 -11.3338702 41.09967995 -9 43 C-5.91652174 43.16681109 -5.91652174 43.16681109 -3 43 C-0.79299653 39.44128909 -0.74232289 36.51052418 -0.734375 32.37109375 C-0.73179687 31.08912109 -0.72921875 29.80714844 -0.7265625 28.48632812 C-0.73075195 27.82189697 -0.73494141 27.15746582 -0.73925781 26.47290039 C-0.74998356 24.44061555 -0.73933627 22.40921096 -0.7265625 20.37695312 C-0.73042969 18.45592773 -0.73042969 18.45592773 -0.734375 16.49609375 C-0.73775879 14.73543579 -0.73775879 14.73543579 -0.74121094 12.93920898 C-0.77992467 9.81056241 -0.77992467 9.81056241 -3 7 C-5.97903963 5.84682337 -6.86559131 5.9551971 -10 7 Z " fill="#FFFFFF" transform="translate(799,457)"/>
<path d="M0 0 C3.51348091 1.86429599 4.61752777 3.05724618 6.10229492 6.71704102 C7.56385876 12.06206383 7.33351774 17.37437366 7.31567383 22.88549805 C7.31251351 24.92876555 7.33601378 26.97058278 7.36132812 29.01367188 C7.36745414 41.4066016 7.36745414 41.4066016 4 47 C0.45726191 50.23014356 -3.14211538 50.5689765 -7.77734375 50.4296875 C-11.58350909 49.69387346 -13.35670706 47.77545759 -16 45 C-17.55809664 41.88380671 -17.20493878 38.56342178 -17.23828125 35.140625 C-17.246353 34.35862732 -17.25442474 33.57662964 -17.26274109 32.77093506 C-17.2765822 31.11326311 -17.28730424 29.45556265 -17.29516602 27.79785156 C-17.31233991 25.27353121 -17.35621865 22.75053414 -17.40039062 20.2265625 C-17.4105213 18.61459295 -17.41903623 17.00261227 -17.42578125 15.390625 C-17.44328934 14.64041077 -17.46079742 13.89019653 -17.47883606 13.11724854 C-17.45756895 7.9280742 -16.29472006 4.98509712 -13 1 C-9.05489381 -0.9725531 -4.30066993 -0.44125371 0 0 Z M-9 7 C-11.75367253 12.50734506 -11.2955662 18.49285532 -11.25 24.5 C-11.25773437 25.51964844 -11.26546875 26.53929687 -11.2734375 27.58984375 C-11.55153043 35.8787475 -11.55153043 35.8787475 -8 43 C-6.00041636 43.04080783 -3.99954746 43.04254356 -2 43 C0.14751732 39.50255372 0.25748984 36.68793215 0.265625 32.625 C0.26820312 31.39265625 0.27078125 30.1603125 0.2734375 28.890625 C0.26570313 27.60671875 0.25796875 26.3228125 0.25 25 C0.25773437 23.71609375 0.26546875 22.4321875 0.2734375 21.109375 C0.26957031 19.26085937 0.26957031 19.26085937 0.265625 17.375 C0.26224121 15.68503906 0.26224121 15.68503906 0.25878906 13.9609375 C0.00589063 11.06739769 -0.3973041 9.39766707 -2 7 C-4.95319818 5.76156206 -5.87438528 5.95812843 -9 7 Z " fill="#FFFFFF" transform="translate(1127,457)"/>
<path d="M0 0 C3.514729 1.86495824 4.61830329 3.05651621 6.10009766 6.71923828 C7.56114955 12.04577526 7.37192716 17.33628559 7.37060547 22.83056641 C7.37497455 24.86316032 7.41133926 26.89357102 7.44921875 28.92578125 C7.47131871 36.35873569 7.32856223 41.81850937 3 48 C-1.2565358 50.50317307 -5.15870462 50.7002588 -10 50 C-14.1167932 47.63503369 -15.59725013 45.45146989 -17 41 C-17.36949781 36.28914919 -17.32939109 31.57658092 -17.31567383 26.85327148 C-17.31251443 24.57291836 -17.33599538 22.29386484 -17.36132812 20.01367188 C-17.36360157 18.55208496 -17.3643044 17.09049458 -17.36328125 15.62890625 C-17.36626221 14.30963135 -17.36924316 12.99035645 -17.37231445 11.63110352 C-16.97072658 7.71450262 -16.08675523 5.31940665 -14 2 C-9.53653698 -0.97564201 -5.23286419 -0.61292699 0 0 Z M-8.60546875 7.65625 C-12.83430502 12.08876338 -11.6319003 18.81030066 -11.5 24.5 C-11.50257812 25.72332031 -11.50515625 26.94664062 -11.5078125 28.20703125 C-11.4545565 36.07512394 -11.4545565 36.07512394 -8 43 C-5.6568787 42.74438677 -3.32156597 42.40729228 -1 42 C1.14694991 37.70610017 0.18585465 31.96671421 0.18530273 27.1965332 C0.18748798 25.07417719 0.2056452 22.95234205 0.22460938 20.83007812 C0.22754367 19.48177261 0.22952823 18.13346463 0.23046875 16.78515625 C0.23663208 14.94256226 0.23663208 14.94256226 0.24291992 13.06274414 C0.23652717 9.82701609 0.23652717 9.82701609 -2 7 C-4.95451317 5.36992377 -5.74422092 5.8374058 -8.60546875 7.65625 Z " fill="#FFFFFF" transform="translate(1297,457)"/>
<path d="M0 0 C3.00241255 2.11935003 4.32954689 3.50437382 5.8125 6.8125 C6.10428901 10.21670513 6.05693812 13.58371288 6 17 C3.69 17 1.38 17 -1 17 C-1.66 14.03 -2.32 11.06 -3 8 C-6.85938975 6.65486576 -6.85938975 6.65486576 -10 8 C-10.62205081 13.68557072 -10.62205081 13.68557072 -8.0625 18.5 C-7.051875 19.325 -6.04125 20.15 -5 21 C-3.42826045 22.32242914 -1.86638739 23.65663929 -0.3125 25 C0.45449219 25.639375 1.22148438 26.27875 2.01171875 26.9375 C5.13043078 30.1726276 6.28553926 33.54249062 6.3125 38 C6.20670669 41.74508305 5.38236187 44.02204767 3 47 C-0.78949702 50.37117592 -3.58504716 50.56088501 -8.51953125 50.4296875 C-12.54378559 49.73257257 -14.25081366 47.96066221 -17 45 C-18.26237731 42.47524538 -18.09856404 40.68799534 -18.0625 37.875 C-18.05347656 36.96492188 -18.04445313 36.05484375 -18.03515625 35.1171875 C-18.02355469 34.41851562 -18.01195312 33.71984375 -18 33 C-15.625 32.375 -15.625 32.375 -13 32 C-10.24072656 34.75927344 -10.48216757 37.21154052 -10 41 C-8.88163776 42.34404775 -8.88163776 42.34404775 -6 42.125 C-3.11836224 42.34404775 -3.11836224 42.34404775 -2 41 C-1.59407068 37.42782201 -1.6716239 35.53853681 -3.5625 32.4375 C-5.51786425 30.48213575 -7.17749655 29.13989315 -9.4375 27.625 C-13.24283993 24.95962182 -16.21195714 22.37516683 -18 18 C-18.8435049 12.42842819 -19.02177353 7.73701501 -16.125 2.8125 C-11.43596937 -1.18696731 -5.91194378 -0.70943325 0 0 Z " fill="#FFFFFF" transform="translate(1376,457)"/>
<path d="M0 0 C3.0748091 1.97482509 4.40420839 4.57926617 5.8125 7.9375 C6.08763821 10.96402033 6.05838766 13.96384144 6 17 C3.69 17 1.38 17 -1 17 C-1.66 14.03 -2.32 11.06 -3 8 C-6.85938975 6.65486576 -6.85938975 6.65486576 -10 8 C-11.04432565 11.22791566 -11.11975402 12.69464783 -9.86328125 15.8984375 C-7.78591158 19.35636521 -5.72528069 21.10704981 -2.5 23.5 C1.7156258 26.62772237 4.03720318 29.0897475 6 34 C6.47000089 39.35801011 6.03777453 43.519231 2.5625 47.75 C-0.78541124 50.42832899 -4.60612145 50.38613461 -8.70703125 50.359375 C-12.59755636 49.74961638 -14.32223635 47.81165184 -17 45 C-18.26237731 42.47524538 -18.09856404 40.68799534 -18.0625 37.875 C-18.05347656 36.96492188 -18.04445313 36.05484375 -18.03515625 35.1171875 C-18.02355469 34.41851562 -18.01195312 33.71984375 -18 33 C-15.525 32.505 -15.525 32.505 -13 32 C-11.68 35.3 -10.36 38.6 -9 42 C-7.02 42 -5.04 42 -3 42 C-1.77940506 37.0177933 -1.77940506 37.0177933 -3.5 32.375 C-5.53652176 30.44030433 -7.46127158 28.90809725 -9.75 27.3125 C-10.8225 26.549375 -11.895 25.78625 -13 25 C-13 24.34 -13 23.68 -13 23 C-13.66 23 -14.32 23 -15 23 C-18.97438807 17.71377235 -18.81815328 12.36048197 -18 6 C-13.80387925 -1.13340528 -7.70508132 -1.09925827 0 0 Z " fill="#FFFFFF" transform="translate(761,457)"/>
<path d="M0 0 C3.92774979 2.00395397 4.74253959 3.32569893 6.3125 7.4375 C6.89187884 10.43973581 7.26777693 12.9651948 7 16 C6 17 6 17 2.9375 17.0625 C1.968125 17.041875 0.99875 17.02125 0 17 C-0.66 14.03 -1.32 11.06 -2 8 C-5.85938975 6.65486576 -5.85938975 6.65486576 -9 8 C-9.97702548 11.01989693 -10.07512668 12.73994612 -9.1875 15.8125 C-6.46554904 19.7787714 -3.21816425 22.22225328 0.625 25.0703125 C3.68319052 27.5550923 5.61154745 29.51011239 6.6171875 33.3671875 C7.17097564 38.75403579 7.34463058 42.42900488 4 47 C0.32891322 50.23919422 -3.1341668 50.46160288 -7.84765625 50.2890625 C-10.85701074 49.88490237 -12.69237741 48.9579828 -15 47 C-17.10629293 43.71212811 -17.21685273 41.10781452 -17.125 37.25 C-17.09792969 35.77273438 -17.09792969 35.77273438 -17.0703125 34.265625 C-17.03550781 33.14414062 -17.03550781 33.14414062 -17 32 C-15.35 32 -13.7 32 -12 32 C-10.68373308 35.61973402 -10 38.09567131 -10 42 C-7.36 42 -4.72 42 -2 42 C-0.95302904 38.33560164 -0.73695682 36.56195588 -2.375 33.0625 C-4.94702484 29.61508425 -8.38829084 27.26320863 -11.87890625 24.80859375 C-15.21285132 21.96583764 -16.79132435 19.41373056 -17.43359375 15.0625 C-17.44418989 6.75512282 -17.44418989 6.75512282 -15.125 2.8125 C-10.61453412 -1.03466207 -5.70267633 -0.57686032 0 0 Z " fill="#FFFFFF" transform="translate(1089,457)"/>
<path d="M0 0 C2.31 0 4.62 0 7 0 C7.33 13.86 7.66 27.72 8 42 C10.31 42 12.62 42 15 42 C18.08643773 38.91356227 17.35865008 35.20240583 17.4140625 31.0546875 C17.43342865 30.1696756 17.4527948 29.2846637 17.4727478 28.37283325 C17.53262723 25.54032084 17.57896213 22.70776797 17.625 19.875 C17.66317211 17.95701332 17.70222338 16.03904393 17.7421875 14.12109375 C17.83833555 9.41420252 17.92233542 4.70723104 18 0 C19.98 0 21.96 0 24 0 C24.04944549 6.05060637 24.08574129 12.10109505 24.10986328 18.15185547 C24.11991954 20.21014454 24.13356629 22.26841933 24.15087891 24.32666016 C24.17514354 27.28551763 24.18648688 30.24418617 24.1953125 33.203125 C24.20563507 34.12305237 24.21595764 35.04297974 24.22659302 35.99078369 C24.22674408 36.8513739 24.22689514 37.71196411 24.22705078 38.59863281 C24.231492 39.35364075 24.23593323 40.10864868 24.24050903 40.88653564 C23.83769803 44.42622263 22.63416885 46.46191734 19.9375 48.75 C14.94614263 50.87398186 10.17017826 50.84920019 5.125 48.875 C1.98168095 46.1014832 0.25780247 43.10377714 -0.25985718 38.87945557 C-0.34610904 36.39585859 -0.33740173 33.93000465 -0.29296875 31.4453125 C-0.28872391 30.54376434 -0.28447906 29.64221619 -0.28010559 28.71334839 C-0.26339058 25.85025435 -0.22575192 22.98787921 -0.1875 20.125 C-0.17244387 18.17709354 -0.15875709 16.22917598 -0.14648438 14.28125 C-0.11351058 9.52055878 -0.06177813 4.76040104 0 0 Z " fill="#FFFFFF" transform="translate(1181,457)"/>
<path d="M0 0 C1.65 0.33 3.3 0.66 5 1 C7.80517668 9.51957561 9.75397196 18.2247204 11.69921875 26.97045898 C12.25461953 29.45819166 12.82243852 31.94289477 13.390625 34.42773438 C13.74555038 36.01285114 14.09974411 37.59813195 14.453125 39.18359375 C14.62386536 39.9241954 14.79460571 40.66479706 14.97052002 41.42784119 C15.70497917 44.78525292 16.10758776 46.67723673 15 50 C13.02 49.67 11.04 49.34 9 49 C8.01 45.04 7.02 41.08 6 37 C3.36 36.67 0.72 36.34 -2 36 C-2.12117187 36.75925781 -2.24234375 37.51851563 -2.3671875 38.30078125 C-2.53476562 39.29464844 -2.70234375 40.28851563 -2.875 41.3125 C-3.03742187 42.29863281 -3.19984375 43.28476562 -3.3671875 44.30078125 C-4 47 -4 47 -6 50 C-8.625 50.1875 -8.625 50.1875 -11 50 C-11.17987979 44.75614083 -10.5576678 40.05544102 -9.35546875 34.94140625 C-9.18501541 34.1934227 -9.01456207 33.44543915 -8.83894348 32.67478943 C-8.47857298 31.10160264 -8.1144734 29.52926585 -7.74682617 27.95776367 C-7.19040134 25.57492474 -6.64804636 23.18920179 -6.10742188 20.80273438 C-5.75343964 19.26543238 -5.39864822 17.72831645 -5.04296875 16.19140625 C-4.88346237 15.48907364 -4.72395599 14.78674103 -4.55961609 14.06312561 C-3.41147071 9.1994035 -1.82996839 4.65126462 0 0 Z M2 18 C0.57741188 21.82320557 -0.24042276 24.91281305 0 29 C1.32 29 2.64 29 4 29 C5.31625194 26.36749612 4.74813658 25.19820944 4.0625 22.375 C3.86785156 21.55773437 3.67320312 20.74046875 3.47265625 19.8984375 C3.31667969 19.27195312 3.16070313 18.64546875 3 18 C2.67 18 2.34 18 2 18 Z " fill="#FFFFFF" transform="translate(947,457)"/>
<path d="M0 0 C6.6 0 13.2 0 20 0 C20.33 1.65 20.66 3.3 21 5 C18.76357738 7.23642262 13.71346616 6.51892205 10.6875 6.71875 C8.08403248 6.70607799 8.08403248 6.70607799 7 8 C6.90126184 9.99799572 6.87028201 11.99957158 6.875 14 C6.87113281 15.6396875 6.87113281 15.6396875 6.8671875 17.3125 C6.69452245 19.91830354 6.69452245 19.91830354 8 21 C9.68183948 21.23287008 11.3712416 21.41264166 13.0625 21.5625 C13.98160156 21.64628906 14.90070313 21.73007812 15.84765625 21.81640625 C16.91306641 21.90728516 16.91306641 21.90728516 18 22 C19.125 25.75 19.125 25.75 18 28 C14.37 28 10.74 28 7 28 C7 32.62 7 37.24 7 42 C9.908125 42.185625 9.908125 42.185625 12.875 42.375 C18.75 42.75 18.75 42.75 21 45 C20.67 46.65 20.34 48.3 20 50 C13.4 50 6.8 50 0 50 C0 33.5 0 17 0 0 Z " fill="#FFFFFF" transform="translate(1013,457)"/>
<path d="M0 0 C6.93 0 13.86 0 21 0 C21.33 1.65 21.66 3.3 22 5 C19.44946069 7.55053931 11.09014574 6.7899901 8 7 C8 11.62 8 16.24 8 21 C11.3 21.33 14.6 21.66 18 22 C18 23.98 18 25.96 18 28 C14.37 28 10.74 28 7 28 C7 35.26 7 42.52 7 50 C5.02 50 3.04 50 1 50 C0 49 0 49 -0.12025452 47.01951599 C-0.11803391 46.15125687 -0.11581329 45.28299774 -0.11352539 44.38842773 C-0.11344986 43.40748642 -0.11337433 42.4265451 -0.11329651 41.4158783 C-0.10813522 40.3492244 -0.10297394 39.2825705 -0.09765625 38.18359375 C-0.0962413 37.0974025 -0.09482635 36.01121124 -0.09336853 34.8921051 C-0.08775048 31.40720925 -0.07519492 27.92237658 -0.0625 24.4375 C-0.05748733 22.08138113 -0.05292402 19.72526126 -0.04882812 17.36914062 C-0.03777518 11.57940257 -0.02049846 5.78971201 0 0 Z " fill="#FFFFFF" transform="translate(819,457)"/>
<path d="M0 0 C7.92 0 15.84 0 24 0 C24 1.98 24 3.96 24 6 C19.545 6.495 19.545 6.495 15 7 C15 21.19 15 35.38 15 50 C13.02 50 11.04 50 9 50 C8 49 8 49 7.87974548 47.24729919 C7.88196609 46.48562943 7.88418671 45.72395966 7.88647461 44.93920898 C7.88655014 44.07839218 7.88662567 43.21757538 7.88670349 42.33067322 C7.89186478 41.39526199 7.89702606 40.45985077 7.90234375 39.49609375 C7.9037587 38.54307877 7.90517365 37.59006378 7.90663147 36.60816956 C7.91224848 33.55124835 7.92480384 30.49439923 7.9375 27.4375 C7.94251281 25.37044376 7.94707609 23.30338638 7.95117188 21.23632812 C7.96222344 16.15752412 7.97949945 11.0787743 8 6 C5.36 6 2.72 6 0 6 C0 4.02 0 2.04 0 0 Z " fill="#FFFFFF" transform="translate(1221,457)"/>
<path d="M0 0 C7.92 0 15.84 0 24 0 C24 1.98 24 3.96 24 6 C21.36 6.33 18.72 6.66 16 7 C15.97494385 8.26706787 15.9498877 9.53413574 15.92407227 10.83959961 C15.83018004 15.52297779 15.72991565 20.2062013 15.62768555 24.8894043 C15.58426759 26.91964104 15.54259774 28.94991592 15.50268555 30.98022461 C15.44514854 33.89188151 15.38140722 36.80334514 15.31640625 39.71484375 C15.29133751 41.08514992 15.29133751 41.08514992 15.26576233 42.48313904 C15.11387171 48.88612829 15.11387171 48.88612829 14 50 C11.5 50.125 11.5 50.125 9 50 C6.82217319 47.82217319 7.73910084 42.74896922 7.68359375 39.71484375 C7.66281265 38.78402481 7.64203156 37.85320587 7.62062073 36.8941803 C7.55502069 33.90869818 7.49619198 30.92312516 7.4375 27.9375 C7.3943247 25.91861024 7.35071075 23.8997298 7.30664062 21.88085938 C7.19932871 16.92066703 7.09809112 11.96038291 7 7 C4.69 6.67 2.38 6.34 0 6 C0 4.02 0 2.04 0 0 Z " fill="#FFFFFF" transform="translate(855,457)"/>
<path d="M0 0 C1.98 0 3.96 0 6 0 C7 1 7 1 7.11352539 4.96899414 C7.1133662 6.74105607 7.10766785 8.5131226 7.09765625 10.28515625 C7.0962413 11.21597519 7.09482635 12.14679413 7.09336853 13.1058197 C7.08775172 16.09141191 7.0751964 19.07693029 7.0625 22.0625 C7.05748716 24.08137913 7.05292388 26.10025943 7.04882812 28.11914062 C7.03777683 33.07945572 7.02050095 38.03971532 7 43 C7.84304688 42.97679687 8.68609375 42.95359375 9.5546875 42.9296875 C11.19824219 42.90261719 11.19824219 42.90261719 12.875 42.875 C13.96554687 42.85179687 15.05609375 42.82859375 16.1796875 42.8046875 C19 43 19 43 21 45 C20.67 46.65 20.34 48.3 20 50 C13.4 50 6.8 50 0 50 C0 33.5 0 17 0 0 Z " fill="#FFFFFF" transform="translate(1148,457)"/>
<path d="M0 0 C2.5 0.125 2.5 0.125 3.5 1.125 C3.59831146 2.62370048 3.62798456 4.12698539 3.62939453 5.62890625 C3.63254669 6.58659912 3.63569885 7.54429199 3.63894653 8.53100586 C3.6369223 9.57264893 3.63489807 10.61429199 3.6328125 11.6875 C3.63376923 12.74912354 3.63472595 13.81074707 3.63571167 14.90454102 C3.63639364 17.15413472 3.63453819 19.40373037 3.63037109 21.65332031 C3.6250231 25.11007071 3.63031554 28.56669117 3.63671875 32.0234375 C3.63605797 34.20312529 3.63477682 36.382813 3.6328125 38.5625 C3.63483673 39.60414307 3.63686096 40.64578613 3.63894653 41.71899414 C3.63579437 42.67668701 3.63264221 43.63437988 3.62939453 44.62109375 C3.62820114 45.89231079 3.62820114 45.89231079 3.62698364 47.18920898 C3.5 49.125 3.5 49.125 2.5 50.125 C0 50.25 0 50.25 -2.5 50.125 C-4.10051664 48.52448336 -3.62731472 46.83653878 -3.62939453 44.62109375 C-3.63254669 43.66340088 -3.63569885 42.70570801 -3.63894653 41.71899414 C-3.6369223 40.67735107 -3.63489807 39.63570801 -3.6328125 38.5625 C-3.63376923 37.50087646 -3.63472595 36.43925293 -3.63571167 35.34545898 C-3.63639364 33.09586528 -3.63453819 30.84626963 -3.63037109 28.59667969 C-3.6250231 25.13992929 -3.63031554 21.68330883 -3.63671875 18.2265625 C-3.63605797 16.04687471 -3.63477682 13.867187 -3.6328125 11.6875 C-3.63483673 10.64585693 -3.63686096 9.60421387 -3.63894653 8.53100586 C-3.63579437 7.57331299 -3.63264221 6.61562012 -3.62939453 5.62890625 C-3.62859894 4.78142822 -3.62780334 3.9339502 -3.62698364 3.06079102 C-3.43228594 0.09273896 -2.98524669 0.14926233 0 0 Z " fill="#FFFFFF" transform="translate(1262.5,456.875)"/>
</svg>
