<svg version="1.1" id="Layer_1" xmlns="http://www.w3.org/2000/svg" xmlns:xlink="http://www.w3.org/1999/xlink" x="0px" y="0px"
	 width="100%" viewBox="0 0 896 736" enable-background="new 0 0 896 736" xml:space="preserve">
<path fill="#000000" opacity="1.000000" stroke="none" 
	d="
M671.872559,324.132141 
	C651.100525,331.758057 629.873657,332.018677 608.604004,330.989777 
	C600.698669,330.607391 593.129578,327.756775 585.446167,325.726715 
	C573.248291,322.503937 562.168823,317.202393 551.675354,310.529877 
	C532.542664,298.363922 517.048157,282.451416 506.031982,262.685669 
	C499.698395,251.321609 495.193970,239.113724 492.063843,226.233353 
	C487.722473,208.368759 487.748474,190.283340 490.404114,172.776840 
	C495.142914,141.537567 510.226593,115.019127 534.163147,93.943123 
	C549.191345,80.710907 566.390076,71.658646 585.501709,65.441742 
	C604.680054,59.203136 624.268188,58.409306 643.697266,60.438622 
	C658.669128,62.002388 673.325867,66.732437 687.014343,74.040169 
	C699.158203,80.523277 710.431396,88.042252 720.297668,97.508949 
	C735.092957,111.704910 746.227539,128.316849 753.437439,147.726654 
	C760.748291,167.408356 762.961487,187.575882 762.051453,208.333221 
	C761.756409,215.064240 759.575256,221.397781 758.156189,227.832428 
	C754.598694,243.962860 747.989136,258.971161 738.500305,272.604492 
	C725.929321,290.666321 709.960571,304.881104 690.638184,315.462219 
	C684.670471,318.730164 678.335693,321.064667 671.872559,324.132141 
M543.296631,120.786659 
	C526.374817,140.054703 516.592163,162.308914 513.951233,187.949524 
	C512.816956,198.962479 514.076904,209.698212 516.487976,220.093262 
	C519.204895,231.806870 524.141052,242.910828 530.441772,253.423462 
	C543.268860,274.825287 561.749084,289.315277 584.471924,298.490631 
	C594.699097,302.620361 605.507019,305.113037 616.760925,305.607422 
	C631.134583,306.238800 645.353394,305.357788 659.093140,301.309814 
	C669.401245,298.272888 679.015564,293.308014 687.887024,287.027069 
	C705.622742,274.470215 719.269470,258.699341 727.775269,238.493332 
	C733.110962,225.817902 736.031067,212.802032 736.626648,199.065475 
	C737.421509,180.730530 733.510498,163.476410 725.631592,147.100388 
	C718.447449,132.168243 707.722717,119.987900 695.025146,109.449821 
	C683.763062,100.103149 670.836609,93.775787 657.040894,89.475143 
	C648.711731,86.878632 639.924683,86.042816 631.078125,85.603745 
	C614.738342,84.792770 598.809814,86.577072 583.812195,92.909378 
	C568.733276,99.276039 555.101379,108.206734 543.296631,120.786659 
z"/>
<path fill="#000000" opacity="1.000000" stroke="none" 
	d="
M398.064667,223.000122 
	C397.606476,211.186554 399.058502,199.877655 398.025543,188.554749 
	C396.683929,173.847885 392.843781,159.871002 386.246643,146.659271 
	C377.185638,128.513290 363.894714,114.094734 347.020813,103.039612 
	C336.765778,96.320900 325.559448,91.864372 313.594086,88.659065 
	C298.261993,84.551865 282.865051,85.201294 267.569580,86.574028 
	C257.458740,87.481461 247.623718,91.328850 238.360947,95.833435 
	C223.853287,102.888657 210.949249,112.298889 200.810394,124.865311 
	C188.929306,139.591110 180.263199,155.826294 176.890793,174.985031 
	C175.071274,185.321686 175.093765,195.477280 175.066025,205.732071 
	C174.960083,244.889511 175.080795,284.047546 175.115860,323.205383 
	C175.122833,330.985626 175.054886,331.100159 167.468811,331.278564 
	C163.488327,331.372162 159.503494,331.290039 155.520706,331.272095 
	C149.656540,331.245636 148.907272,330.543762 148.908188,324.630035 
	C148.911407,303.968201 148.911011,283.306213 148.997208,262.644623 
	C149.101425,237.656097 148.154099,212.633972 149.807480,187.692932 
	C150.635727,175.198929 152.972672,162.860153 157.135361,150.791214 
	C165.857056,125.504097 180.903717,104.980667 201.620239,88.454262 
	C212.420639,79.838333 224.422806,73.413406 237.416397,68.404213 
	C246.626144,64.853729 256.274963,63.508251 265.551331,60.536293 
	C270.184448,59.051926 275.159790,59.958347 279.978424,59.890732 
	C287.141663,59.790215 294.343140,59.460747 301.463226,60.035385 
	C309.182800,60.658409 316.653320,62.892136 324.149963,64.938599 
	C330.404114,66.645882 336.399139,68.815346 342.321747,71.386406 
	C358.062164,78.219429 371.671570,88.077675 383.882355,100.020401 
	C397.656464,113.492210 407.512604,129.559769 414.432404,147.357361 
	C420.356659,162.594406 423.184265,178.618851 423.300110,194.965363 
	C423.510315,224.624084 423.295898,254.285568 423.389587,283.945496 
	C423.431671,297.269501 423.833588,310.592041 423.983856,323.916199 
	C424.055328,330.252289 423.100800,331.151520 416.800140,331.235596 
	C412.302002,331.295624 407.787964,331.067474 403.308838,331.374176 
	C399.517426,331.633789 398.074219,329.831635 398.011353,326.472107 
	C397.924103,321.809235 398.005676,317.143311 398.008667,312.478668 
	C398.027740,282.819122 398.045105,253.159592 398.064667,223.000122 
z"/>
<path fill="#000000" opacity="1.000000" stroke="none" 
	d="
M136.211472,419.803802 
	C134.353485,416.607666 132.419525,413.851990 131.040390,410.842102 
	C129.369080,407.194641 130.796265,404.971863 134.791580,404.873718 
	C141.452332,404.710052 148.121399,404.896698 154.783173,404.755859 
	C157.733444,404.693542 159.358673,406.201172 160.685440,408.526184 
	C166.272995,418.317657 171.945419,428.060883 177.506348,437.867401 
	C186.175659,453.155457 194.792160,468.473480 203.408524,483.791473 
	C218.375549,510.399567 233.259628,537.054565 248.304260,563.618652 
	C259.325775,583.079285 270.548492,602.425964 282.041718,622.450989 
	C286.598938,618.089783 288.528503,612.526428 291.340271,607.663940 
	C302.140686,588.986694 312.626862,570.127869 323.238037,551.341187 
	C331.966827,535.887207 340.683319,520.426270 349.447815,504.992554 
	C359.261597,487.711029 369.394836,470.604248 378.881470,453.145630 
	C387.029297,438.150970 395.612885,423.412415 403.929810,408.519379 
	C405.312592,406.043274 407.008972,404.766937 409.822754,404.789001 
	C416.653442,404.842529 423.488373,404.695526 430.314423,404.885681 
	C435.078918,405.018463 436.057129,406.529968 433.774200,410.675903 
	C426.339172,424.178467 418.670349,437.552216 411.101349,450.981079 
	C396.033356,477.714722 381.017670,504.477966 365.892670,531.179321 
	C354.530731,551.237549 342.928223,571.159912 331.620117,591.248169 
	C317.632233,616.096924 303.840637,641.056152 289.954529,665.962158 
	C289.065491,667.556641 287.976685,669.048645 287.187714,670.687866 
	C286.157013,672.829224 285.246216,675.227295 282.537476,675.383545 
	C279.641907,675.550476 278.692322,672.695435 277.770966,670.844788 
	C270.301453,655.841309 261.362793,641.677124 253.137680,627.108154 
	C243.445541,609.940613 233.731262,592.785645 224.075348,575.597778 
	C210.189865,550.881104 196.441696,526.086914 182.461670,501.423981 
	C168.815918,477.350739 154.939117,453.408539 141.201767,429.387085 
	C139.476257,426.369812 137.982498,423.220001 136.211472,419.803802 
z"/>
<path fill="#000000" opacity="1.000000" stroke="none" 
	d="
M585.757324,527.752930 
	C577.107849,543.134338 568.627991,558.189697 560.149658,573.245789 
	C551.275940,589.004028 542.443848,604.785889 533.518982,620.515076 
	C525.075806,635.395325 515.696289,649.820129 508.350342,665.218933 
	C503.879303,674.591248 498.089752,677.593689 488.577118,676.290527 
	C485.141083,675.819763 481.587189,676.239563 478.088013,676.188660 
	C475.913177,676.157043 473.689148,676.117126 472.343048,673.315430 
	C480.135132,659.692017 488.076935,645.896667 495.931274,632.051758 
	C505.916840,614.450073 515.850708,596.818970 525.770935,579.180359 
	C534.389038,563.857056 542.903809,548.475464 551.559326,533.173401 
	C565.268860,508.936371 579.079346,484.756470 592.805664,460.528931 
	C602.212341,443.925720 611.541138,427.278351 620.934753,410.667725 
	C621.501709,409.665283 622.366272,408.835785 623.036926,407.886627 
	C624.999817,405.108582 626.623962,404.760071 628.457764,408.156555 
	C632.719482,416.049744 637.123779,423.867645 641.569397,431.659515 
	C649.968811,446.381378 658.538635,461.006744 666.854492,475.775360 
	C679.313110,497.901550 691.530823,520.163452 704.003784,542.281555 
	C717.792236,566.732544 731.772217,591.075439 745.632263,615.486084 
	C755.784790,633.366821 765.884338,651.277527 775.993713,669.182739 
	C778.535217,673.684021 777.190979,676.071533 771.956665,676.156006 
	C765.791992,676.255493 759.623657,676.120544 753.458923,676.218079 
	C750.102112,676.271118 747.617310,674.893311 746.028687,672.060303 
	C733.625732,649.941650 721.319519,627.768616 708.881592,605.669678 
	C694.882324,580.796570 680.742065,556.002869 666.727661,531.138184 
	C654.262695,509.022400 641.895813,486.851196 629.451233,464.723816 
	C628.484924,463.005615 627.247253,461.440033 625.325500,458.610657 
	C611.926514,482.014709 598.927063,504.720978 585.757324,527.752930 
z"/>
</svg>